<svg width="60" height="55" viewBox="0 0 60 55" fill="none" xmlns="http://www.w3.org/2000/svg">
<path d="M3.10577 10.3876L38.5964 28.8542L57.7844 9.3776C59.9485 7.21354 59.9484 3.75118 57.64 1.58712C56.6301 0.577224 55.1875 0 53.7448 0H5.5583C2.96143 0 0.797435 1.73128 0.220352 4.18389C-0.356731 6.63649 0.941706 9.23344 3.10577 10.3876Z" fill="white"/>
<path d="M56.486 44.291L20.9955 25.8242L1.80737 45.3008C-0.356691 47.4648 -0.356727 50.9274 1.95161 53.0914C2.9615 54.1013 4.40432 54.6784 5.84702 54.6784H54.0333C57.063 54.6784 59.5157 52.2259 59.5157 49.1962C59.3714 47.1764 58.2173 45.3008 56.486 44.291Z" fill="white"/>
</svg>
